<?xml version="1.0" encoding="UTF-8" standalone="no"?>
<!-- Created with Inkscape (http://www.inkscape.org/) -->

<svg
   xmlns:dc="http://purl.org/dc/elements/1.1/"
   xmlns:cc="http://creativecommons.org/ns#"
   xmlns:rdf="http://www.w3.org/1999/02/22-rdf-syntax-ns#"
   xmlns:svg="http://www.w3.org/2000/svg"
   xmlns="http://www.w3.org/2000/svg"
   xmlns:sodipodi="http://sodipodi.sourceforge.net/DTD/sodipodi-0.dtd"
   xmlns:inkscape="http://www.inkscape.org/namespaces/inkscape"
   width="16"
   height="16"
   viewBox="0 0 16 16"
   id="svg2"
   version="1.1"
   inkscape:version="0.91 r13725"
   inkscape:export-filename="C:\Users\peter\workspace\js\astrosim\res\logo.png"
   inkscape:export-xdpi="11520"
   inkscape:export-ydpi="11520"
   sodipodi:docname="astrosim.svg">
  <defs
     id="defs4" />
  <sodipodi:namedview
     id="base"
     pagecolor="#ffffff"
     bordercolor="#666666"
     borderopacity="1.0"
     inkscape:pageopacity="0.0"
     inkscape:pageshadow="2"
     inkscape:zoom="45.254834"
     inkscape:cx="8.576859"
     inkscape:cy="9.3621342"
     inkscape:document-units="px"
     inkscape:current-layer="layer1"
     showgrid="false"
     units="px"
     inkscape:object-nodes="true"
     inkscape:window-width="1366"
     inkscape:window-height="705"
     inkscape:window-x="-8"
     inkscape:window-y="-8"
     inkscape:window-maximized="1" />
  <metadata
     id="metadata7">
    <rdf:RDF>
      <cc:Work
         rdf:about="">
        <dc:format>image/svg+xml</dc:format>
        <dc:type
           rdf:resource="http://purl.org/dc/dcmitype/StillImage" />
        <dc:title />
      </cc:Work>
    </rdf:RDF>
  </metadata>
  <g
     inkscape:label="Layer 1"
     inkscape:groupmode="layer"
     id="layer1"
     transform="translate(0,-1036.3622)">
    <path
       style="fill:#3477cc;fill-opacity:1;stroke:none;stroke-width:0.01;stroke-miterlimit:4;stroke-dasharray:none;stroke-opacity:1"
       d="M 0 0 L 0 16 L 16 16 L 16 0 L 0 0 z M 8 4.0039062 A 3.9962766 3.9962766 0 0 1 11.605469 6.2890625 A 7.2081571 1.9849618 0 0 1 15.208984 8.0058594 A 7.2081571 1.9849618 0 0 1 11.599609 9.7265625 A 3.9962766 3.9962766 0 0 1 8 11.996094 A 3.9962766 3.9962766 0 0 1 4.4003906 9.7265625 A 7.2081571 1.9849618 0 0 1 0.79101562 8.0058594 A 7.2081571 1.9849618 0 0 1 4.3945312 6.2871094 A 3.9962766 3.9962766 0 0 1 8 4.0039062 z M 4.1796875 6.8242188 A 6.2538787 1.4899855 0 0 0 1.7460938 8.0058594 A 6.2538787 1.4899855 0 0 0 4.1894531 9.1894531 A 3.9962766 3.9962766 0 0 1 4.0039062 8 A 3.9962766 3.9962766 0 0 1 4.1796875 6.8242188 z M 11.816406 6.8242188 A 3.9962766 3.9962766 0 0 1 11.996094 8 A 3.9962766 3.9962766 0 0 1 11.816406 9.1875 A 6.2538787 1.4899855 0 0 0 14.253906 8.0058594 A 6.2538787 1.4899855 0 0 0 11.816406 6.8242188 z M 4.0859375 12.730469 C 4.28125 12.730469 4.4298503 12.760091 4.5332031 12.820312 C 4.636556 12.87972 4.7084961 12.980957 4.75 13.125 L 4.5214844 13.166016 C 4.4962565 13.07487 4.4477539 13.00944 4.3769531 12.96875 C 4.3061523 12.927246 4.2073569 12.90625 4.0820312 12.90625 C 3.9444987 12.90625 3.8400065 12.929036 3.7675781 12.974609 C 3.6951497 13.020182 3.6601562 13.087402 3.6601562 13.177734 C 3.6601562 13.230632 3.6735026 13.275553 3.7011719 13.310547 C 3.7296549 13.344727 3.7693685 13.374022 3.8222656 13.398438 C 3.8751628 13.422038 3.9807943 13.451335 4.1386719 13.486328 C 4.191569 13.498535 4.2447917 13.510416 4.296875 13.523438 C 4.3497721 13.535644 4.3992513 13.550456 4.4472656 13.568359 C 4.4952799 13.585449 4.5405273 13.605306 4.5820312 13.628906 C 4.624349 13.652507 4.6604819 13.682617 4.6914062 13.716797 C 4.7223307 13.750977 4.746582 13.791504 4.7636719 13.837891 C 4.7815755 13.884277 4.7910156 13.937337 4.7910156 14 C 4.7910156 14.158691 4.7280273 14.282064 4.6035156 14.369141 C 4.4798177 14.456217 4.3055013 14.5 4.0800781 14.5 C 3.6609701 14.5 3.4182943 14.353841 3.3515625 14.0625 L 3.578125 14.017578 C 3.6041667 14.120931 3.6595052 14.197266 3.7441406 14.246094 C 3.828776 14.294108 3.9441732 14.318359 4.0898438 14.318359 C 4.2403971 14.318359 4.3561198 14.291504 4.4375 14.240234 C 4.519694 14.188151 4.5605469 14.11377 4.5605469 14.013672 C 4.5605469 13.95752 4.547526 13.911947 4.5214844 13.876953 C 4.4962565 13.84196 4.4604492 13.81185 4.4140625 13.789062 C 4.3676758 13.766277 4.3123372 13.747884 4.2480469 13.732422 C 4.1837565 13.71696 4.1113281 13.699544 4.0332031 13.681641 C 3.8972982 13.65153 3.7954102 13.621908 3.7246094 13.591797 C 3.6546224 13.561686 3.5992838 13.528809 3.5585938 13.492188 C 3.5179035 13.454752 3.4868163 13.41097 3.4648438 13.361328 C 3.4436849 13.311686 3.4316406 13.253743 3.4316406 13.189453 C 3.4316406 13.042155 3.4892578 12.929362 3.6015625 12.849609 C 3.714681 12.769857 3.8759766 12.730469 4.0859375 12.730469 z M 9.2148438 12.730469 C 9.3898111 12.730469 9.5432943 12.763997 9.671875 12.833984 C 9.8004557 12.903158 9.8972981 13.004069 9.9648438 13.136719 C 10.033203 13.269368 10.068359 13.426758 10.068359 13.607422 C 10.068359 13.787272 10.034017 13.944987 9.9648438 14.080078 C 9.8964843 14.215169 9.7965494 14.318197 9.6679688 14.390625 C 9.539388 14.463053 9.3878581 14.5 9.2128906 14.5 C 9.0362956 14.5 8.8844401 14.464193 8.7558594 14.392578 C 8.6280924 14.320964 8.5304362 14.217122 8.4628906 14.082031 C 8.3953451 13.946126 8.3613281 13.788086 8.3613281 13.607422 C 8.3613281 13.332357 8.4373372 13.117513 8.5878906 12.962891 C 8.738444 12.807454 8.946289 12.730469 9.2148438 12.730469 z M 11.033203 12.730469 C 11.228516 12.730469 11.377116 12.760091 11.480469 12.820312 C 11.583822 12.87972 11.657715 12.980957 11.699219 13.125 L 11.46875 13.166016 C 11.443522 13.07487 11.39502 13.00944 11.324219 12.96875 C 11.253418 12.927246 11.156576 12.90625 11.03125 12.90625 C 10.893717 12.90625 10.789225 12.929036 10.716797 12.974609 C 10.644368 13.020182 10.607422 13.087402 10.607422 13.177734 C 10.607422 13.230632 10.620767 13.275553 10.648438 13.310547 C 10.67692 13.344727 10.718587 13.374022 10.771484 13.398438 C 10.824382 13.422038 10.930013 13.451335 11.087891 13.486328 C 11.140788 13.498535 11.192057 13.510416 11.244141 13.523438 C 11.297038 13.535644 11.34847 13.550456 11.396484 13.568359 C 11.444499 13.585449 11.489746 13.605306 11.53125 13.628906 C 11.573568 13.652507 11.609701 13.682617 11.640625 13.716797 C 11.671549 13.750977 11.695801 13.791504 11.712891 13.837891 C 11.730794 13.884277 11.738281 13.937337 11.738281 14 C 11.738281 14.158691 11.677246 14.282064 11.552734 14.369141 C 11.429036 14.456217 11.25472 14.5 11.029297 14.5 C 10.610189 14.5 10.367513 14.353841 10.300781 14.0625 L 10.525391 14.017578 C 10.551432 14.120931 10.606771 14.197266 10.691406 14.246094 C 10.776042 14.294108 10.891439 14.318359 11.037109 14.318359 C 11.187663 14.318359 11.303385 14.291504 11.384766 14.240234 C 11.46696 14.188151 11.507814 14.11377 11.507812 14.013672 C 11.507813 13.95752 11.494792 13.911947 11.46875 13.876953 C 11.443522 13.84196 11.407715 13.81185 11.361328 13.789062 C 11.314941 13.766277 11.259604 13.747884 11.195312 13.732422 C 11.131023 13.71696 11.060547 13.699544 10.982422 13.681641 C 10.846517 13.65153 10.742676 13.621908 10.671875 13.591797 C 10.601888 13.561686 10.546549 13.528809 10.505859 13.492188 C 10.465169 13.454752 10.434082 13.41097 10.412109 13.361328 C 10.390951 13.311686 10.380859 13.253743 10.380859 13.189453 C 10.380859 13.042155 10.436523 12.929362 10.548828 12.849609 C 10.661947 12.769857 10.823242 12.730469 11.033203 12.730469 z M 2.2753906 12.755859 L 2.5390625 12.755859 L 3.2304688 14.474609 L 2.9921875 14.474609 L 2.796875 13.972656 L 2.0117188 13.972656 L 1.8144531 14.474609 L 1.5722656 14.474609 L 2.2753906 12.755859 z M 4.9648438 12.755859 L 6.3769531 12.755859 L 6.3769531 12.945312 L 5.7871094 12.945312 L 5.7871094 14.474609 L 5.5546875 14.474609 L 5.5546875 12.945312 L 4.9648438 12.945312 L 4.9648438 12.755859 z M 6.640625 12.755859 L 7.4511719 12.755859 C 7.6448568 12.755859 7.793457 12.799642 7.8984375 12.886719 C 8.0042318 12.972982 8.0566406 13.093424 8.0566406 13.248047 C 8.0566406 13.375814 8.0201823 13.483237 7.9453125 13.570312 C 7.8712565 13.65739 7.7677409 13.711589 7.6367188 13.734375 L 8.125 14.474609 L 7.8574219 14.474609 L 7.4101562 13.761719 L 6.875 13.761719 L 6.875 14.474609 L 6.640625 14.474609 L 6.640625 12.755859 z M 12.085938 12.755859 L 12.320312 12.755859 L 12.320312 14.474609 L 12.085938 14.474609 L 12.085938 12.755859 z M 12.753906 12.755859 L 13.060547 12.755859 L 13.519531 13.947266 C 13.535807 13.99528 13.549805 14.048177 13.564453 14.103516 C 13.579915 14.15804 13.59082 14.196289 13.595703 14.220703 C 13.602214 14.188151 13.616374 14.140137 13.636719 14.074219 C 13.657878 14.007487 13.672363 13.964355 13.679688 13.947266 L 14.128906 12.755859 L 14.427734 12.755859 L 14.427734 14.474609 L 14.216797 14.474609 L 14.216797 13.328125 C 14.216797 13.201172 14.221191 13.078124 14.228516 12.960938 C 14.188639 13.106608 14.152832 13.22054 14.121094 13.302734 L 13.675781 14.474609 L 13.511719 14.474609 L 13.0625 13.302734 L 12.994141 13.095703 L 12.953125 12.960938 L 12.957031 13.097656 L 12.962891 13.328125 L 12.962891 14.474609 L 12.753906 14.474609 L 12.753906 12.755859 z M 9.2148438 12.919922 C 9.0179035 12.919922 8.8671875 12.981121 8.7597656 13.101562 C 8.6523438 13.222006 8.5976562 13.390137 8.5976562 13.607422 C 8.5976562 13.823079 8.6515299 13.994141 8.7597656 14.121094 C 8.8688151 14.247233 9.0200195 14.310547 9.2128906 14.310547 C 9.4114583 14.310547 9.5641276 14.249023 9.6699219 14.126953 C 9.7765299 14.004069 9.8300781 13.831217 9.8300781 13.607422 C 9.8300781 13.393392 9.7753905 13.225586 9.6679688 13.103516 C 9.5613607 12.981445 9.4101561 12.919922 9.2148438 12.919922 z M 2.4042969 12.931641 L 2.3925781 12.964844 C 2.3722331 13.032389 2.3426107 13.118815 2.3027344 13.224609 L 2.0839844 13.791016 L 2.7265625 13.791016 L 2.5058594 13.222656 C 2.4830729 13.166504 2.4602865 13.104004 2.4375 13.033203 L 2.4042969 12.931641 z M 6.875 12.941406 L 6.875 13.576172 L 7.4375 13.576172 C 7.5603841 13.576172 7.6559245 13.549153 7.7226562 13.492188 C 7.7902018 13.434408 7.8222656 13.353353 7.8222656 13.25 C 7.8222656 13.149902 7.7890625 13.073568 7.7207031 13.021484 C 7.6531576 12.968587 7.5555013 12.941406 7.4277344 12.941406 L 6.875 12.941406 z "
       transform="translate(0,1036.3622)"
       id="rect4161" />
  </g>
</svg>
