<?xml version="1.0" encoding="UTF-8" standalone="no"?>
<!-- Created with Inkscape (http://www.inkscape.org/) -->

<svg
   xmlns:dc="http://purl.org/dc/elements/1.1/"
   xmlns:cc="http://creativecommons.org/ns#"
   xmlns:rdf="http://www.w3.org/1999/02/22-rdf-syntax-ns#"
   xmlns:svg="http://www.w3.org/2000/svg"
   xmlns="http://www.w3.org/2000/svg"
   xmlns:sodipodi="http://sodipodi.sourceforge.net/DTD/sodipodi-0.dtd"
   xmlns:inkscape="http://www.inkscape.org/namespaces/inkscape"
   width="16"
   height="16"
   viewBox="0 0 16 16"
   id="svg4142"
   version="1.1"
   inkscape:version="0.91 r13725"
   sodipodi:docname="astrosim_shapes.svg">
  <defs
     id="defs4144" />
  <sodipodi:namedview
     id="base"
     pagecolor="#ffffff"
     bordercolor="#666666"
     borderopacity="1.0"
     inkscape:pageopacity="0.0"
     inkscape:pageshadow="2"
     inkscape:zoom="31.678384"
     inkscape:cx="7.6600686"
     inkscape:cy="7.1345185"
     inkscape:document-units="px"
     inkscape:current-layer="layer1"
     showgrid="false"
     units="px"
     inkscape:window-width="1366"
     inkscape:window-height="705"
     inkscape:window-x="-8"
     inkscape:window-y="-8"
     inkscape:window-maximized="1" />
  <metadata
     id="metadata4147">
    <rdf:RDF>
      <cc:Work
         rdf:about="">
        <dc:format>image/svg+xml</dc:format>
        <dc:type
           rdf:resource="http://purl.org/dc/dcmitype/StillImage" />
        <dc:title></dc:title>
      </cc:Work>
    </rdf:RDF>
  </metadata>
  <g
     inkscape:label="Layer 1"
     inkscape:groupmode="layer"
     id="layer1"
     transform="translate(0,-1036.3622)">
    <rect
       style="fill:#ffff00;fill-opacity:1;stroke:none;stroke-width:0.01;stroke-miterlimit:4;stroke-dasharray:none;stroke-opacity:1"
       id="rect4718"
       width="16"
       height="16"
       x="0"
       y="1036.3623" />
    <path
       style="fill:#0000ff;fill-opacity:1;stroke:none;stroke-width:0.01;stroke-miterlimit:4;stroke-dasharray:none;stroke-opacity:1"
       d="m 1,1044.3622 a 7.0000002,2.9995405 0 0 1 7,-3 7.0000002,2.9995405 0 0 1 7,3 l -1.636719,0 a 5.4444446,2.3816577 0 0 0 0.08203,-0.3926 A 5.4444446,2.3816577 0 0 0 8,1041.5868 a 5.4444446,2.3816577 0 0 0 -5.4453125,2.3828 5.4444446,2.3816577 0 0 0 0.076172,0.3926 L 1,1044.3622 Z"
       id="path4703"
       inkscape:connector-curvature="0" />
    <circle
       style="fill:#ff0000;fill-opacity:1;stroke:none;stroke-width:0.01;stroke-miterlimit:4;stroke-dasharray:none;stroke-opacity:1"
       id="path4711"
       cx="7.9999995"
       cy="1044.3622"
       r="4" />
    <path
       style="fill:#0000ff;fill-opacity:1;stroke:none;stroke-width:0.01;stroke-miterlimit:4;stroke-dasharray:none;stroke-opacity:1"
       d="M 1 8 A 7.0000002 2.9995405 0 0 0 8 11 A 7.0000002 2.9995405 0 0 0 15 8 L 13.363281 8 A 5.4444446 2.3816577 0 0 1 8 9.9882812 A 5.4444446 2.3816577 0 0 1 2.6308594 8 L 1 8 z "
       transform="translate(0,1036.3622)"
       id="path4690" />
    <text
       xml:space="preserve"
       style="font-style:normal;font-weight:normal;font-size:2.42556524px;line-height:125%;font-family:sans-serif;letter-spacing:0px;word-spacing:0px;fill:#000000;fill-opacity:1;stroke:none;stroke-width:1px;stroke-linecap:butt;stroke-linejoin:miter;stroke-opacity:1"
       x="2.0424254"
       y="1020.0247"
       id="text4714"
       sodipodi:linespacing="125%"
       transform="scale(0.97022609,1.0306876)"><tspan
         sodipodi:role="line"
         id="tspan4716"
         x="2.0424254"
         y="1020.0247">ASTROSIM</tspan></text>
  </g>
</svg>
