<?xml version="1.0" encoding="UTF-8" standalone="no"?>
<!-- Created with Inkscape (http://www.inkscape.org/) -->

<svg
   xmlns:dc="http://purl.org/dc/elements/1.1/"
   xmlns:cc="http://creativecommons.org/ns#"
   xmlns:rdf="http://www.w3.org/1999/02/22-rdf-syntax-ns#"
   xmlns:svg="http://www.w3.org/2000/svg"
   xmlns="http://www.w3.org/2000/svg"
   xmlns:sodipodi="http://sodipodi.sourceforge.net/DTD/sodipodi-0.dtd"
   xmlns:inkscape="http://www.inkscape.org/namespaces/inkscape"
   width="16"
   height="16"
   viewBox="0 0 16 16"
   id="svg4142"
   version="1.1"
   inkscape:version="0.91 r13725"
   sodipodi:docname="astrosim.svg"
   inkscape:export-filename="C:\Users\peter\workspace\js\astrosim\res\astrosim_icon_16.png"
   inkscape:export-xdpi="90"
   inkscape:export-ydpi="90">
  <defs
     id="defs4144" />
  <sodipodi:namedview
     id="base"
     pagecolor="#ffffff"
     bordercolor="#666666"
     borderopacity="1.0"
     inkscape:pageopacity="0.0"
     inkscape:pageshadow="2"
     inkscape:zoom="22.4"
     inkscape:cx="5.8534165"
     inkscape:cy="8.0050724"
     inkscape:document-units="px"
     inkscape:current-layer="layer1"
     showgrid="false"
     units="px"
     inkscape:window-width="1366"
     inkscape:window-height="705"
     inkscape:window-x="-8"
     inkscape:window-y="-8"
     inkscape:window-maximized="1" />
  <metadata
     id="metadata4147">
    <rdf:RDF>
      <cc:Work
         rdf:about="">
        <dc:format>image/svg+xml</dc:format>
        <dc:type
           rdf:resource="http://purl.org/dc/dcmitype/StillImage" />
        <dc:title></dc:title>
      </cc:Work>
    </rdf:RDF>
  </metadata>
  <g
     inkscape:label="Layer 1"
     inkscape:groupmode="layer"
     id="layer1"
     transform="translate(0,-1036.3622)">
    <path
       style="fill:#3477cc;fill-opacity:1;stroke:none;stroke-width:0.01;stroke-miterlimit:4;stroke-dasharray:none;stroke-opacity:1"
       d="M 0 0 L 0 16 L 16 16 L 16 0 L 0 0 z M 8 4 A 4 4 0 0 1 10.925781 5.2773438 A 7.0000002 2.9995405 0 0 1 15 8 A 7.0000002 2.9995405 0 0 1 10.921875 10.722656 A 4 4 0 0 1 8 12 A 4 4 0 0 1 5.0742188 10.722656 A 7.0000002 2.9995405 0 0 1 1 8 A 7.0000002 2.9995405 0 0 1 5.0761719 5.2773438 A 4 4 0 0 1 8 4 z M 11.269531 5.7050781 A 4 4 0 0 1 12 8 A 4 4 0 0 1 11.771484 9.3164062 A 5.4444446 2.3816577 0 0 0 13.363281 8 A 5.4444446 2.3816577 0 0 0 13.445312 7.6074219 A 5.4444446 2.3816577 0 0 0 11.269531 5.7050781 z M 4.7265625 5.7070312 A 5.4444446 2.3816577 0 0 0 2.5546875 7.6074219 A 5.4444446 2.3816577 0 0 0 2.6308594 8 A 5.4444446 2.3816577 0 0 0 4.2285156 9.3203125 A 4 4 0 0 1 4 8 A 4 4 0 0 1 4.7265625 5.7070312 z M 4.3476562 13.109375 C 4.4280929 13.109375 4.5102491 13.117351 4.59375 13.132812 C 4.6772509 13.148276 4.7622782 13.170247 4.8496094 13.201172 L 4.8496094 13.443359 C 4.7615121 13.3986 4.6777478 13.36377 4.5996094 13.341797 C 4.5214709 13.319824 4.447776 13.308594 4.375 13.308594 C 4.2485995 13.308594 4.1490238 13.334635 4.0800781 13.386719 C 4.0118985 13.438802 3.9785156 13.513346 3.9785156 13.609375 C 3.9785156 13.689941 4.0016773 13.751465 4.046875 13.792969 C 4.0928388 13.833659 4.1794741 13.86735 4.3066406 13.892578 L 4.4472656 13.921875 C 4.6203959 13.956868 4.7461562 14.018717 4.828125 14.107422 C 4.9108598 14.195313 4.953125 14.312825 4.953125 14.460938 C 4.953125 14.637533 4.8970015 14.772135 4.7851562 14.863281 C 4.6740771 14.954427 4.5101857 15 4.2949219 15 C 4.2137192 15 4.129037 14.990234 4.0371094 14.970703 C 3.9459478 14.951172 3.8500092 14.923014 3.7519531 14.884766 L 3.7519531 14.630859 C 3.8461789 14.687012 3.9389014 14.72933 4.0292969 14.757812 C 4.1196924 14.786296 4.2075907 14.800781 4.2949219 14.800781 C 4.4274508 14.800781 4.5315057 14.772135 4.6035156 14.716797 C 4.6755256 14.661458 4.7109375 14.583008 4.7109375 14.480469 C 4.7109375 14.390951 4.6849048 14.319987 4.6328125 14.269531 C 4.5814863 14.219076 4.49688 14.181478 4.3789062 14.15625 L 4.2363281 14.126953 C 4.0631978 14.090332 3.9387005 14.033203 3.8613281 13.955078 C 3.7839557 13.876953 3.7460938 13.768066 3.7460938 13.628906 C 3.7460937 13.467773 3.7978141 13.34082 3.9042969 13.248047 C 4.0115457 13.155273 4.1599707 13.109375 4.3476562 13.109375 z M 9.0859375 13.109375 C 9.3264814 13.109375 9.5200426 13.195474 9.6640625 13.367188 C 9.8080824 13.538086 9.8789062 13.766602 9.8789062 14.054688 C 9.8789062 14.34196 9.8080824 14.572428 9.6640625 14.744141 C 9.5200426 14.915039 9.3264814 15 9.0859375 15 C 8.8446275 15 8.6525985 14.915039 8.5078125 14.744141 C 8.3637926 14.573242 8.2910156 14.342772 8.2910156 14.054688 C 8.2910156 13.766601 8.3637926 13.538085 8.5078125 13.367188 C 8.6525985 13.195474 8.8446275 13.109375 9.0859375 13.109375 z M 10.769531 13.109375 C 10.849968 13.109375 10.932124 13.117351 11.015625 13.132812 C 11.099126 13.148276 11.184153 13.170247 11.271484 13.201172 L 11.271484 13.443359 C 11.183387 13.3986 11.099623 13.36377 11.021484 13.341797 C 10.943346 13.319824 10.867698 13.308594 10.794922 13.308594 C 10.668521 13.308594 10.570899 13.334635 10.501953 13.386719 C 10.433773 13.438802 10.400391 13.513346 10.400391 13.609375 C 10.400391 13.689941 10.421599 13.751465 10.466797 13.792969 C 10.512761 13.833659 10.599397 13.86735 10.726562 13.892578 L 10.867188 13.921875 C 11.040318 13.956868 11.168031 14.018717 11.25 14.107422 C 11.332735 14.195313 11.375 14.312825 11.375 14.460938 C 11.375 14.637533 11.318877 14.772135 11.207031 14.863281 C 11.095952 14.954427 10.932061 15 10.716797 15 C 10.635594 15 10.548959 14.990234 10.457031 14.970703 C 10.36587 14.951172 10.271884 14.923014 10.173828 14.884766 L 10.173828 14.630859 C 10.268054 14.687012 10.360776 14.72933 10.451172 14.757812 C 10.541567 14.786296 10.629466 14.800781 10.716797 14.800781 C 10.849326 14.800781 10.951427 14.772135 11.023438 14.716797 C 11.095446 14.661458 11.132814 14.583008 11.132812 14.480469 C 11.132813 14.390951 11.10678 14.319987 11.054688 14.269531 C 11.00336 14.219076 10.916802 14.181478 10.798828 14.15625 L 10.658203 14.126953 C 10.485073 14.090332 10.360576 14.033203 10.283203 13.955078 C 10.205831 13.876953 10.166016 13.768066 10.166016 13.628906 C 10.166016 13.467773 10.219689 13.34082 10.326172 13.248047 C 10.433421 13.155273 10.581846 13.109375 10.769531 13.109375 z M 2.6542969 13.142578 L 2.9179688 13.142578 L 3.5722656 14.964844 L 3.3300781 14.964844 L 3.1738281 14.498047 L 2.4003906 14.498047 L 2.2441406 14.964844 L 2 14.964844 L 2.6542969 13.142578 z M 5.078125 13.142578 L 6.5292969 13.142578 L 6.5292969 13.349609 L 5.9199219 13.349609 L 5.9199219 14.964844 L 5.6855469 14.964844 L 5.6855469 13.349609 L 5.078125 13.349609 L 5.078125 13.142578 z M 6.7539062 13.142578 L 7.2773438 13.142578 C 7.473456 13.142578 7.6202729 13.18636 7.7167969 13.273438 C 7.8133209 13.360513 7.8613281 13.492187 7.8613281 13.667969 C 7.8613281 13.782715 7.8357164 13.877441 7.7851562 13.953125 C 7.7353622 14.028809 7.6621643 14.080078 7.5664062 14.109375 C 7.6162005 14.127279 7.6661608 14.166016 7.7128906 14.224609 C 7.7603866 14.283203 7.8079728 14.364258 7.8554688 14.466797 L 8.0898438 14.964844 L 7.8417969 14.964844 L 7.6210938 14.498047 C 7.5644051 14.375977 7.5087026 14.293783 7.4550781 14.253906 C 7.4022198 14.21403 7.3302089 14.195312 7.2382812 14.195312 L 6.9863281 14.195312 L 6.9863281 14.964844 L 6.7539062 14.964844 L 6.7539062 13.142578 z M 11.736328 13.142578 L 11.96875 13.142578 L 11.96875 14.964844 L 11.736328 14.964844 L 11.736328 13.142578 z M 12.429688 13.142578 L 12.775391 13.142578 L 13.214844 14.382812 L 13.654297 13.142578 L 14 13.142578 L 14 14.964844 L 13.773438 14.964844 L 13.773438 13.365234 L 13.332031 14.615234 L 13.097656 14.615234 L 12.65625 13.365234 L 12.65625 14.964844 L 12.429688 14.964844 L 12.429688 13.142578 z M 9.0859375 13.308594 C 8.9174036 13.308594 8.7831819 13.376302 8.6835938 13.509766 C 8.5847715 13.643229 8.5351562 13.824381 8.5351562 14.054688 C 8.5351562 14.284179 8.5847715 14.466146 8.6835938 14.599609 C 8.7831819 14.733073 8.9174036 14.800781 9.0859375 14.800781 C 9.2544714 14.800781 9.388272 14.733073 9.4863281 14.599609 C 9.5851503 14.466146 9.6347656 14.284179 9.6347656 14.054688 C 9.6347656 13.824382 9.5851503 13.643229 9.4863281 13.509766 C 9.388272 13.376302 9.2544714 13.308594 9.0859375 13.308594 z M 6.9863281 13.345703 L 6.9863281 13.992188 L 7.2773438 13.992188 C 7.389189 13.992187 7.4745613 13.964681 7.53125 13.910156 C 7.5887048 13.854818 7.6171875 13.774577 7.6171875 13.667969 C 7.6171875 13.561361 7.5887048 13.479492 7.53125 13.425781 C 7.4745613 13.371257 7.389189 13.345703 7.2773438 13.345703 L 6.9863281 13.345703 z M 2.7851562 13.384766 L 2.4707031 14.292969 L 3.1015625 14.292969 L 2.7851562 13.384766 z "
       transform="translate(0,1036.3622)"
       id="rect4718" />
  </g>
</svg>
